<svg width="429" xmlns="http://www.w3.org/2000/svg" height="451" id="screenshot-474dc581-601d-8022-8006-2ed27b01510b" viewBox="0 0 429 451" xmlns:xlink="http://www.w3.org/1999/xlink" fill="none" version="1.1"><g id="shape-474dc581-601d-8022-8006-2ed27b01510b"><defs><clipPath id="frame-clip-474dc581-601d-8022-8006-2ed27b01510b-render-1" class="frame-clip frame-clip-def"><rect rx="0" ry="0" x="0" y="0" width="429" height="451" transform="matrix(1.000000, 0.000000, 0.000000, 1.000000, 0.000000, 0.000000)"/></clipPath></defs><g class="frame-container-wrapper"><g class="frame-container-blur"><g class="frame-container-shadows"><g clip-path="url(#frame-clip-474dc581-601d-8022-8006-2ed27b01510b-render-1)" fill="none"><g class="fills" id="fills-474dc581-601d-8022-8006-2ed27b01510b"><rect width="429" height="451" class="frame-background" x="0" transform="matrix(1.000000, 0.000000, 0.000000, 1.000000, 0.000000, 0.000000)" style="fill: rgb(255, 255, 255); fill-opacity: 1;" ry="0" rx="0" y="0"/></g><g class="frame-children"><g id="shape-474dc581-601d-8022-8006-2ed4a8873760"><g class="fills" id="fills-474dc581-601d-8022-8006-2ed4a8873760"><rect rx="0" ry="0" x="0" y="228" transform="matrix(1.000000, 0.000000, 0.000000, 1.000000, 0.000000, 0.000000)" width="40" height="214" style="fill: rgb(209, 151, 93); fill-opacity: 1;"/></g></g><g id="shape-474dc581-601d-8022-8006-2ed3c2ac7042"><g class="fills" id="fills-474dc581-601d-8022-8006-2ed3c2ac7042"><path d="M60,372 h180 a10,10 0 0 1 10,10 v60 a0,0 0 0 1 0,0 h-200 a0,0 0 0 1 0,0 v-60 a10,10 0 0 1 10,-10 z" x="50" y="372" transform="matrix(1.000000, 0.000000, 0.000000, 1.000000, 0.000000, 0.000000)" width="200" height="70" style="fill: rgb(209, 151, 93); fill-opacity: 1;"/></g></g><g id="shape-474dc581-601d-8022-8006-2ed2bf9e964c"><g class="fills" id="fills-474dc581-601d-8022-8006-2ed2bf9e964c"><rect rx="0" ry="0" x="5.684341886080802e-14" y="432" transform="matrix(1.000000, 0.000000, 0.000000, 1.000000, 0.000000, 0.000000)" width="249.99999999999994" height="19" style="fill: rgb(177, 178, 181); fill-opacity: 1;"/></g></g><g id="shape-474dc581-601d-8022-8006-2ed2d56af8f2"><g class="fills" id="fills-474dc581-601d-8022-8006-2ed2d56af8f2"><rect rx="0" ry="0" x="0" y="0" transform="matrix(1.000000, 0.000000, 0.000000, 1.000000, 0.000000, 0.000000)" width="146" height="70" style="fill: rgb(177, 178, 181); fill-opacity: 1;"/></g></g><g id="shape-474dc581-601d-8022-8006-2ed5162b05ed"><g class="fills" id="fills-474dc581-601d-8022-8006-2ed5162b05ed"><rect rx="0" ry="0" x="202" y="0" transform="matrix(1.000000, 0.000000, 0.000000, 1.000000, 0.000000, 0.000000)" width="120" height="13" style="fill: rgb(177, 178, 181); fill-opacity: 1;"/></g></g><g id="shape-474dc581-601d-8022-8006-2ed2ed2047c7"><g class="fills" id="fills-474dc581-601d-8022-8006-2ed2ed2047c7"><rect rx="0" ry="0" x="382" y="0" transform="matrix(1.000000, 0.000000, 0.000000, 1.000000, 0.000000, 0.000000)" width="47" height="68" style="fill: rgb(177, 178, 181); fill-opacity: 1;"/></g></g><g id="shape-474dc581-601d-8022-8006-2ed3489d3668"><g class="fills" id="fills-474dc581-601d-8022-8006-2ed3489d3668"><rect rx="0" ry="0" x="419" y="374" transform="matrix(1.000000, 0.000000, 0.000000, 1.000000, 0.000000, 0.000000)" width="10" height="77" style="fill: rgb(177, 178, 181); fill-opacity: 1;"/></g></g><g id="shape-474dc581-601d-8022-8006-2ed30721493a"><g class="fills" id="fills-474dc581-601d-8022-8006-2ed30721493a"><rect rx="0" ry="0" x="425" y="230" transform="matrix(1.000000, 0.000000, 0.000000, 1.000000, 0.000000, 0.000000)" width="4" height="125" style="fill: rgb(177, 178, 181); fill-opacity: 1;"/></g></g><g id="shape-474dc581-601d-8022-8006-2ed57e48d2e0"><g class="fills" id="fills-474dc581-601d-8022-8006-2ed57e48d2e0"><rect rx="0" ry="0" x="344" y="447" transform="matrix(1.000000, 0.000000, 0.000000, 1.000000, 0.000000, 0.000000)" width="60" height="4" style="fill: rgb(177, 178, 181); fill-opacity: 1;"/></g></g><g id="shape-474dc581-601d-8022-8006-2ed4c4fef794"><g class="fills" id="fills-474dc581-601d-8022-8006-2ed4c4fef794"><rect rx="0" ry="0" x="0" y="192" transform="matrix(1.000000, 0.000000, 0.000000, 1.000000, 0.000000, 0.000000)" width="50" height="40" style="fill: rgb(209, 151, 93); fill-opacity: 1;"/></g></g><g id="shape-474dc581-601d-8022-8006-2ed4f15348ee"><g class="fills" id="fills-474dc581-601d-8022-8006-2ed4f15348ee"><rect rx="0" ry="0" x="144" y="0" transform="matrix(1.000000, 0.000000, 0.000000, 1.000000, 0.000000, 0.000000)" width="36" height="79" style="fill: rgb(209, 151, 93); fill-opacity: 1;"/></g></g><g id="shape-474dc581-601d-8022-8006-2ed3f9b466c1"><g class="fills" id="fills-474dc581-601d-8022-8006-2ed3f9b466c1"><path d="M0,68 h203 a10,10 0 0 1 10,10 v107 a10,10 0 0 1 -10,10 h-203 a0,0 0 0 1 0,0 v-127 a0,0 0 0 1 0,0 z" x="0" y="68" transform="matrix(1.000000, 0.000000, 0.000000, 1.000000, 0.000000, 0.000000)" width="213" height="127" style="fill: rgb(209, 151, 93); fill-opacity: 1;"/></g></g><g id="shape-474dc581-601d-8022-8006-2ed41b989158"><g class="fills" id="fills-474dc581-601d-8022-8006-2ed41b989158"><rect rx="10" ry="10" x="282.0495128834866" y="180.54951288348656" transform="matrix(0.707107, -0.707107, 0.707107, 0.707107, -57.106908, 313.230754)" width="135" height="90" style="fill: rgb(209, 151, 93); fill-opacity: 1;"/></g></g><g id="shape-474dc581-601d-8022-8006-2ed7ceef2c27" rx="0" ry="0"><g id="shape-474dc581-601d-8022-8006-2ed6933b1b59"><g class="fills" id="fills-474dc581-601d-8022-8006-2ed6933b1b59"><path d="M0.000,69.000L429.000,69.000"/></g><g id="strokes-0f3612c1-0955-80bf-8006-2ed81c9dd8e7-474dc581-601d-8022-8006-2ed6933b1b59" class="strokes"><g class="stroke-shape"><path d="M0.000,69.000L429.000,69.000" style="fill: none; stroke-width: 2; stroke: rgb(0, 0, 0); stroke-opacity: 0.3; stroke-dasharray: 0, 7; stroke-linecap: round;"/></g></g></g><g id="shape-474dc581-601d-8022-8006-2ed70f3eb4c3"><g class="fills" id="fills-474dc581-601d-8022-8006-2ed70f3eb4c3"><path d="M0.000,169.000L429.000,169.000"/></g><g id="strokes-0f3612c1-0955-80bf-8006-2ed81c9eace0-474dc581-601d-8022-8006-2ed70f3eb4c3" class="strokes"><g class="stroke-shape"><path d="M0.000,169.000L429.000,169.000" style="fill: none; stroke-width: 2; stroke: rgb(0, 0, 0); stroke-opacity: 0.3; stroke-dasharray: 0, 7; stroke-linecap: round;"/></g></g></g><g id="shape-474dc581-601d-8022-8006-2ed717de463e"><g class="fills" id="fills-474dc581-601d-8022-8006-2ed717de463e"><path d="M0.000,269.000L429.000,269.000"/></g><g id="strokes-0f3612c1-0955-80bf-8006-2ed81c9ef245-474dc581-601d-8022-8006-2ed717de463e" class="strokes"><g class="stroke-shape"><path d="M0.000,269.000L429.000,269.000" style="fill: none; stroke-width: 2; stroke: rgb(0, 0, 0); stroke-opacity: 0.3; stroke-dasharray: 0, 7; stroke-linecap: round;"/></g></g></g><g id="shape-474dc581-601d-8022-8006-2ed719c94234"><g class="fills" id="fills-474dc581-601d-8022-8006-2ed719c94234"><path d="M0.000,369.000L429.000,369.000"/></g><g id="strokes-0f3612c1-0955-80bf-8006-2ed81c9f06ae-474dc581-601d-8022-8006-2ed719c94234" class="strokes"><g class="stroke-shape"><path d="M0.000,369.000L429.000,369.000" style="fill: none; stroke-width: 2; stroke: rgb(0, 0, 0); stroke-opacity: 0.3; stroke-dasharray: 0, 7; stroke-linecap: round;"/></g></g></g><g id="shape-474dc581-601d-8022-8006-2ed75e6ee1e0"><g class="fills" id="fills-474dc581-601d-8022-8006-2ed75e6ee1e0"><path d="M41.010,0.000L41.010,451.000"/></g><g id="strokes-0f3612c1-0955-80bf-8006-2ed81c9f8736-474dc581-601d-8022-8006-2ed75e6ee1e0" class="strokes"><g class="stroke-shape"><path d="M41.010,0.000L41.010,451.000" style="fill: none; stroke-width: 2; stroke: rgb(0, 0, 0); stroke-opacity: 0.3; stroke-dasharray: 0, 7; stroke-linecap: round;"/></g></g></g><g id="shape-474dc581-601d-8022-8006-2ed7944c3ca6"><g class="fills" id="fills-474dc581-601d-8022-8006-2ed7944c3ca6"><path d="M141.010,0.000L141.010,451.000"/></g><g id="strokes-0f3612c1-0955-80bf-8006-2ed81c9fe343-474dc581-601d-8022-8006-2ed7944c3ca6" class="strokes"><g class="stroke-shape"><path d="M141.010,0.000L141.010,451.000" style="fill: none; stroke-width: 2; stroke: rgb(0, 0, 0); stroke-opacity: 0.3; stroke-dasharray: 0, 7; stroke-linecap: round;"/></g></g></g><g id="shape-474dc581-601d-8022-8006-2ed79adc1493"><g class="fills" id="fills-474dc581-601d-8022-8006-2ed79adc1493"><path d="M241.010,0.000L241.010,451.000"/></g><g id="strokes-0f3612c1-0955-80bf-8006-2ed81ca03176-474dc581-601d-8022-8006-2ed79adc1493" class="strokes"><g class="stroke-shape"><path d="M241.010,0.000L241.010,451.000" style="fill: none; stroke-width: 2; stroke: rgb(0, 0, 0); stroke-opacity: 0.3; stroke-dasharray: 0, 7; stroke-linecap: round;"/></g></g></g><g id="shape-474dc581-601d-8022-8006-2ed79b7af5be"><g class="fills" id="fills-474dc581-601d-8022-8006-2ed79b7af5be"><path d="M341.010,0.000L341.010,451.000"/></g><g id="strokes-0f3612c1-0955-80bf-8006-2ed81ca056db-474dc581-601d-8022-8006-2ed79b7af5be" class="strokes"><g class="stroke-shape"><path d="M341.010,0.000L341.010,451.000" style="fill: none; stroke-width: 2; stroke: rgb(0, 0, 0); stroke-opacity: 0.3; stroke-dasharray: 0, 7; stroke-linecap: round;"/></g></g></g></g></g></g></g></g></g></g></svg>